<svg xmlns:svg="http://www.w3.org/2000/svg" xmlns="http://www.w3.org/2000/svg" xmlns:xlink="http://www.w3.org/1999/xlink" version="1.1" id="Layer_1" x="0" y="0" width="629" height="115" viewBox="0 0 629 115" preserveAspectRatio="xMidYMid meet" enable-background="new 0 0 629 115" xml:space="preserve"><style>.s0{stop-color:#912E2A;}.s1{stop-color:#AA2B26;}.s2{stop-color:#D72720;}</style><metadata id="metadata4682"/><defs id="defs4680"/><g id="g4030"><defs id="defs4032"><rect id="SVGID_1_" x="-74.5" y="-234.5" width="800" height="600"/></defs><clipPath id="SVGID_2_"><use xlink:href="#SVGID_1_" overflow="visible" id="use4036"/></clipPath><g clip-path="url(#SVGID_2_)" id="g4038"><defs id="defs4040"><rect id="SVGID_3_" x="-74.5" y="-234.5" width="800" height="600"/></defs><clipPath id="SVGID_4_"><use xlink:href="#SVGID_3_" overflow="visible" id="use4044"/></clipPath><path clip-path="url(#SVGID_4_)" d="M136.8 100.2V38.7h8.2v6.2h0.2c1.3-1.9 3.1-3.6 5.7-5 2.5-1.4 5.6-2.1 9.1-2.1 6 0 10.7 2.1 13.9 6.3 3.2 4.2 4.9 9.5 4.9 15.7 0 6.6-1.6 12.1-4.7 16.7-3.2 4.6-7.8 6.9-14 6.9-6.8 0-11.6-2.3-14.5-7h-0.2v23.9H136.8zM170.1 60.3c0.1-4.4-0.8-8.2-2.9-11.4-2-3.2-5-4.8-9.1-4.8-4.1 0-7.3 1.6-9.5 4.9-2.2 3.2-3.4 7.1-3.4 11.5 0 4.2 1.1 7.9 3.3 11.2 2.2 3.3 5.4 5 9.5 5 3.9 0 6.9-1.8 9-5.3C169.2 68.1 170.2 64.3 170.1 60.3M182.8 82.3V38.7h8v7.3h0.2c1.1-2.4 2.7-4.4 4.8-6 2.1-1.5 4.3-2.3 6.6-2.3 1.5 0 3.3 0.2 5.3 0.6v7.6c-1.3-0.5-2.7-0.8-4.4-0.8-3.6 0-6.5 1.6-8.6 4.7-2.2 3.2-3.2 7.4-3.2 12.8V82.3H182.8zM206.6 60.5c0-6.7 2.1-12.1 6.2-16.4 4.1-4.3 9.5-6.4 16.1-6.4 6.6 0 11.9 2.1 16 6.4 4.1 4.3 6.2 9.7 6.2 16.4 0 6.4-2.1 11.8-6.2 16.2-4.2 4.4-9.5 6.6-15.9 6.6-6.4 0-11.8-2.2-15.9-6.6C208.7 72.3 206.6 66.9 206.6 60.5M215.2 60.5c0 4.3 1.2 8.1 3.5 11.4 2.3 3.3 5.7 4.9 10.2 4.9 4.4 0 7.8-1.6 10.1-4.9 2.3-3.3 3.5-7.1 3.5-11.4 0-4.4-1.2-8.2-3.7-11.5-2.5-3.2-5.8-4.9-9.9-4.9-4.1 0-7.4 1.6-9.9 4.9C216.4 52.3 215.2 56.1 215.2 60.5M256.5 82.3V38.7h8v6.3h0.2c3-4.9 7.6-7.4 13.8-7.4 2.8 0 5.3 0.7 7.6 2.1 2.3 1.4 4 3.5 5.2 6.3 1.4-2.8 3.4-5 6-6.4 2.6-1.4 5.1-2.1 7.5-2.1 5.4 0 9.4 1.5 11.9 4.5 2.5 3 3.8 7.1 3.8 12.2V82.3h-8.6V56.3c0-8.1-2.6-12.1-7.7-12.1-3.8 0-6.7 1.6-8.6 4.7-1.9 3.1-2.9 7-2.9 11.5V82.3h-8.6V56.3c0-8.1-2.6-12.1-7.7-12.1-3.8 0-6.7 1.6-8.6 4.7-1.9 3.1-2.8 7-2.8 11.5V82.3H256.5zM325.3 100.2V38.7h8.2v6.2h0.2c1.3-1.9 3.1-3.6 5.7-5 2.5-1.4 5.6-2.1 9.1-2.1 6 0 10.7 2.1 13.9 6.3 3.2 4.2 4.9 9.5 4.9 15.7 0 6.6-1.6 12.1-4.7 16.7-3.2 4.6-7.8 6.9-14 6.9-6.8 0-11.6-2.3-14.5-7h-0.2v23.9H325.3zM358.7 60.3c0.1-4.4-0.8-8.2-2.9-11.4-2-3.2-5-4.8-9.1-4.8-4.1 0-7.3 1.6-9.5 4.9-2.2 3.2-3.4 7.1-3.4 11.5 0 4.2 1.1 7.9 3.3 11.2 2.2 3.3 5.4 5 9.5 5 3.9 0 6.9-1.8 9-5.3C357.8 68.1 358.8 64.3 358.7 60.3M394.1 38.7v6.5H383v23.9c0 2.5 0.6 4.4 1.9 5.7 1.3 1.4 2.9 2.1 4.8 2.1 2.1 0 3.9-0.5 5.5-1.5v6.8c-2.8 0.8-5.1 1.2-6.8 1.2-4.3 0-7.7-1-10.2-3.1-2.5-2.1-3.7-5.3-3.7-9.5v-25.5h-9.3v-6.5h9.3V28.6l8.6-2.6v12.7H394.1z" id="path4046" fill="#FFFFFF"/><polygon clip-path="url(#SVGID_4_)" points="414.5 82.3 399.7 38.3 411.7 38.3 421.7 70.8 421.8 70.8 430.7 38.3 443.7 38.3 453.4 70.9 453.8 70.9 462.9 38.3 472.9 38.3 460.4 82.3 446.9 82.3 437.3 48.7 436.8 48.6 427.4 82.3 " id="polygon4058" fill="#FFFFFF"/><path clip-path="url(#SVGID_4_)" d="M469.3 60.6c0-7.1 2.2-12.8 6.5-17 4.3-4.2 9.8-6.3 16.5-6.3s12.2 2.1 16.5 6.3c4.4 4.2 6.5 9.9 6.5 17 0 6.6-2.1 12-6.2 16.3-4.1 4.3-9.8 6.5-16.9 6.5-7.1 0-12.7-2.2-16.8-6.5S469.3 67.1 469.3 60.6M481.2 59.2c0 4.1 0.8 7.6 2.5 10.4 1.7 2.8 4.5 4.2 8.5 4.2 2.1 0 3.9-0.4 5.4-1.3 1.5-0.9 2.7-2 3.5-3.5 0.8-1.5 1.4-3 1.7-4.6 0.3-1.6 0.5-3.4 0.5-5.3 0-3.5-1-6.5-2.9-8.9-1.9-2.4-4.7-3.7-8.2-3.7s-6.3 1.2-8.2 3.7C482.2 52.8 481.2 55.8 481.2 59.2M518.2 82.3V38.3h10.2v10h0.2c0.4-2.4 1.8-4.8 4.2-7.3 2.4-2.5 5.2-3.7 8.3-3.7 1.5 0 2.7 0.1 3.5 0.3v11.5c-1.1-0.6-2.8-0.9-5.1-0.9-1.5 0-2.8 0.3-3.9 0.8-1.1 0.5-2 1.4-2.7 2.5-0.7 1.1-1.2 2.2-1.6 3.2-0.4 1.1-0.7 2.4-0.9 4-0.2 1.6-0.3 2.9-0.3 3.8 0 0.9 0 2.1 0 3.6V82.3H518.2z" id="path4060" fill="#FFFFFF"/><polygon clip-path="url(#SVGID_4_)" points="547.1 82.3 547.1 18.2 559.1 18.2 559.1 55.9 559.3 55.9 572.9 38.3 586.4 38.3 570 57.9 588.4 82.3 573.9 82.3 559.3 60.9 559.1 60.9 559.1 82.3 " id="polygon4064" fill="#FFFFFF"/><path clip-path="url(#SVGID_4_)" d="M617.3 38.9l-0.8 8.6c-3.6-1.3-7.1-1.9-10.3-1.9-1.8 0-3.4 0.4-4.7 1.2-1.3 0.8-2 2-2 3.7 0 1.3 0.7 2.3 2.1 3 1.4 0.8 3 1.4 5 2 1.9 0.5 3.9 1.2 5.9 2.1 2 0.8 3.6 2.2 5 4.1 1.4 1.9 2.1 4.3 2.1 7.3 0 4.8-1.8 8.4-5.3 10.8-3.6 2.4-7.9 3.6-13.1 3.6-3.9 0-8.3-0.6-13-1.9l0.7-9.4c3.9 1.9 7.6 2.9 11.3 2.9 1.9 0 3.6-0.4 5.2-1.2 1.6-0.8 2.4-2.2 2.4-4.1 0-1.3-0.5-2.4-1.5-3.2-1-0.9-2.2-1.5-3.7-1.8-1.5-0.4-3.1-0.9-4.8-1.5-1.7-0.6-3.3-1.3-4.8-2.1-1.5-0.7-2.7-2-3.7-3.7-1-1.7-1.5-3.8-1.5-6.3 0-4.5 1.7-7.9 5-10.2 3.3-2.3 7.4-3.5 12.3-3.5C608.1 37.2 612.2 37.8 617.3 38.9" id="path4066" fill="#FFFFFF"/><rect x="457.4" y="38.3" clip-path="url(#SVGID_4_)" width="11.3" height="6.3" id="rect4068" fill="#FFFFFF"/><rect x="425.4" y="38.3" clip-path="url(#SVGID_4_)" width="11.3" height="6.3" id="rect4070" fill="#FFFFFF"/><rect x="396.6" y="38.3" clip-path="url(#SVGID_4_)" width="11.3" height="6.3" id="rect4072" fill="#FFFFFF"/><rect x="514" y="38.3" clip-path="url(#SVGID_4_)" width="11.3" height="6.3" id="rect4074" fill="#FFFFFF"/><rect x="320" y="38.7" clip-path="url(#SVGID_4_)" width="11.3" height="6.3" id="rect4076" fill="#FFFFFF"/><rect x="251" y="38.7" clip-path="url(#SVGID_4_)" width="11.3" height="6.3" id="rect4078" fill="#FFFFFF"/><rect x="178.7" y="38.7" clip-path="url(#SVGID_4_)" width="11.3" height="6.3" id="rect4080" fill="#FFFFFF"/><rect x="132.3" y="38.7" clip-path="url(#SVGID_4_)" width="11.3" height="6.3" id="rect4082" fill="#FFFFFF"/><rect x="565" y="38.3" clip-path="url(#SVGID_4_)" width="11.3" height="6.3" id="rect4084" fill="#FFFFFF"/></g><g clip-path="url(#SVGID_2_)" id="g4086"><defs id="defs4088"><path id="SVGID_5_" d="M60.5 33.7c6.4 1.6 12.5 5.3 17.6 10.4 14.6 14.6 14.9 38 1 52.9 0.6-0.3 1.2-0.7 1.8-1 2.7-0.1 5.4 0.4 7.8 1.6 3.1-2.5 5.9-5.3 8.3-8.5-1.2-2.4-1.9-5.1-1.8-7.8 1.8-3.1 3.1-6.4 4-9.8 1.8-2 4.2-3.5 6.7-4.4 0.2-1.8 0.3-3.7 0.3-5.5 0-2.2-0.1-4.3-0.4-6.3-2.6-0.8-4.9-2.3-6.8-4.3-0.7-2.7-1.8-5.7-3.1-8.3-7.3-6.8-16.6-10.2-26-10.2C66.8 32.6 63.6 33 60.5 33.7"/></defs><clipPath id="SVGID_6_"><use xlink:href="#SVGID_5_" overflow="visible" id="use4092"/></clipPath><linearGradient id="SVGID_7_" gradientUnits="userSpaceOnUse" x1="-74.5" y1="365.5" x2="-73.5" y2="365.5" gradientTransform="matrix(-1.530000e-05 246.1269 246.1269 1.530000e-05 -89876.0234 18274.9512)"><stop offset="0" id="stop4095" stop-color="#912E2A"/><stop offset="0.3" id="stop4097" stop-color="#912E2A"/><stop offset="0.4" id="stop4099" stop-color="#AA2B26"/><stop offset="0.5" id="stop4101" stop-color="#D72720"/><stop offset="1" id="stop4103" stop-color="#D72720"/></linearGradient><rect x="60.5" y="32.6" clip-path="url(#SVGID_6_)" width="45.7" height="65.1" id="rect4105" fill="url(#SVGID_7_)"/></g><g clip-path="url(#SVGID_2_)" id="g4107"><defs id="defs4109"><path id="SVGID_8_" d="M78 79.5c-14.6 14.6-38 14.9-52.9 1 0.3 0.6 0.7 1.2 1 1.8 0.1 2.7-0.4 5.4-1.6 7.8 2.5 3.1 5.3 5.9 8.5 8.3 2.4-1.2 5.1-1.9 7.8-1.8 3.1 1.8 6.4 3.1 9.8 4 2 1.8 3.5 4.2 4.4 6.7 1.8 0.2 3.7 0.3 5.5 0.3 2.2 0 4.3-0.2 6.3-0.4 0.8-2.6 2.3-4.9 4.3-6.8 2.7-0.7 5.4-1.8 7.9-3.1 9.1-9.8 12.1-23.2 9-35.4C86.4 68.4 83.1 74.5 78 79.5"/></defs><clipPath id="SVGID_9_"><use xlink:href="#SVGID_8_" overflow="visible" id="use4113"/></clipPath><linearGradient id="SVGID_10_" gradientUnits="userSpaceOnUse" x1="-74.5" y1="365.5" x2="-73.5" y2="365.5" gradientTransform="matrix(-244.7718 -1.530000e-05 -1.530000e-05 244.7718 -18052.7422 -89379.2109)"><stop offset="0" id="stop4116" stop-color="#912E2A"/><stop offset="0.3" id="stop4118" stop-color="#912E2A"/><stop offset="0.4" id="stop4120" stop-color="#AA2B26"/><stop offset="0.5" id="stop4122" stop-color="#D72720"/><stop offset="1" id="stop4124" stop-color="#D72720"/></linearGradient><rect x="24.5" y="61.9" clip-path="url(#SVGID_9_)" width="66.7" height="45.7" id="rect4126" fill="url(#SVGID_10_)"/></g><g clip-path="url(#SVGID_2_)" id="g4128"><defs id="defs4130"><path id="SVGID_11_" d="M54.2 16.1c-0.8 2.6-2.3 4.9-4.3 6.8-2.7 0.7-5.4 1.8-7.9 3.1-9.1 9.8-12.1 23.2-9 35.4 1.6-6.4 5-12.5 10-17.5 14.6-14.6 38-14.9 52.9-1-0.3-0.6-0.7-1.2-1-1.8-0.1-2.7 0.4-5.4 1.6-7.8-2.5-3.1-5.3-5.9-8.5-8.3-2.4 1.3-5.1 1.9-7.8 1.8-3.1-1.8-6.4-3.1-9.8-4-2-1.8-3.5-4.2-4.4-6.7-1.8-0.2-3.7-0.3-5.5-0.3C58.3 15.6 56.2 15.8 54.2 16.1"/></defs><clipPath id="SVGID_12_"><use xlink:href="#SVGID_11_" overflow="visible" id="use4134"/></clipPath><linearGradient id="SVGID_13_" gradientUnits="userSpaceOnUse" x1="-74.5" y1="365.5" x2="-73.5" y2="365.5" gradientTransform="matrix(244.7718 1.530000e-05 1.530000e-05 -244.7718 18173.7422 89502.5859)"><stop offset="0" id="stop4137" stop-color="#912E2A"/><stop offset="0.3" id="stop4139" stop-color="#912E2A"/><stop offset="0.4" id="stop4141" stop-color="#AA2B26"/><stop offset="0.5" id="stop4143" stop-color="#D72720"/><stop offset="1" id="stop4145" stop-color="#D72720"/></linearGradient><rect x="29.9" y="15.6" clip-path="url(#SVGID_12_)" width="66.7" height="45.7" id="rect4147" fill="url(#SVGID_13_)"/></g><g clip-path="url(#SVGID_2_)" id="g4149"><defs id="defs4151"><path id="SVGID_14_" d="M24 34.4c1.3 2.4 1.9 5.1 1.8 7.8-1.8 3.1-3.1 6.4-4 9.8-1.8 2-4.2 3.5-6.7 4.4-0.2 1.8-0.3 3.7-0.3 5.5 0 2.2 0.2 4.3 0.4 6.3 2.6 0.8 4.9 2.3 6.8 4.3 0.7 2.7 1.8 5.4 3.1 7.9 9.8 9.1 23.2 12.1 35.4 9-6.4-1.6-12.5-5-17.5-10-14.6-14.6-14.9-38-1-52.9-0.6 0.3-1.2 0.7-1.8 1-2.7 0.1-5.4-0.4-7.8-1.6C29.2 28.4 26.4 31.2 24 34.4"/></defs><clipPath id="SVGID_15_"><use xlink:href="#SVGID_14_" overflow="visible" id="use4155"/></clipPath><linearGradient id="SVGID_16_" gradientUnits="userSpaceOnUse" x1="-74.5" y1="365.5" x2="-73.5" y2="365.5" gradientTransform="matrix(1.530000e-05 -244.7662 -244.7662 -1.530000e-05 89499.6875 -18050.8281)"><stop offset="0" id="stop4158" stop-color="#912E2A"/><stop offset="0.3" id="stop4160" stop-color="#912E2A"/><stop offset="0.4" id="stop4162" stop-color="#AA2B26"/><stop offset="0.5" id="stop4164" stop-color="#D72720"/><stop offset="1" id="stop4166" stop-color="#D72720"/></linearGradient><rect x="14.8" y="25.9" clip-path="url(#SVGID_15_)" width="45.7" height="66.7" id="rect4168" fill="url(#SVGID_16_)"/></g></g></svg>