<?xml version="1.0" encoding="UTF-8" standalone="no"?><svg xmlns="http://www.w3.org/2000/svg" xmlns:xlink="http://www.w3.org/1999/xlink" clip-rule="evenodd" stroke-miterlimit="4.00" viewBox="0 0 1024 768"><desc>SVG generated by Keynote</desc><defs></defs><g transform="matrix(1.00, 0.00, -0.00, -1.00, 0.0, 768.0)"><path d="M 0.0 768.0 L 1024.0 768.0 L 1024.0 0.0 L 0.0 0.0 Z M 0.0 768.0 " fill="#FEFFFF"></path><text xml:space="preserve" font-family="Helvetica-Light" font-size="80.0" fill="#000000" transform="matrix(1.00, 0.00, -0.00, -1.00, 348.0, 618.0)">F</text><text xml:space="preserve" font-family="Helvetica-Light" font-size="80.0" fill="#000000" transform="matrix(1.00, 0.00, -0.00, -1.00, 392.5, 618.0)">u</text><text xml:space="preserve" font-family="Helvetica-Light" font-size="80.0" fill="#000000" transform="matrix(1.00, 0.00, -0.00, -1.00, 437.0, 618.0)">n</text><text xml:space="preserve" font-family="Helvetica-Light" font-size="80.0" fill="#000000" transform="matrix(1.00, 0.00, -0.00, -1.00, 481.4, 618.0)">c</text><text xml:space="preserve" font-family="Helvetica-Light" font-size="80.0" fill="#000000" transform="matrix(1.00, 0.00, -0.00, -1.00, 525.9, 618.0)">t</text><text xml:space="preserve" font-family="Helvetica-Light" font-size="80.0" fill="#000000" transform="matrix(1.00, 0.00, -0.00, -1.00, 548.2, 618.0)">i</text><text xml:space="preserve" font-family="Helvetica-Light" font-size="80.0" fill="#000000" transform="matrix(1.00, 0.00, -0.00, -1.00, 565.9, 618.0)">o</text><text xml:space="preserve" font-family="Helvetica-Light" font-size="80.0" fill="#000000" transform="matrix(1.00, 0.00, -0.00, -1.00, 610.4, 618.0)">n</text><text xml:space="preserve" font-family="Helvetica-Light" font-size="80.0" fill="#000000" transform="matrix(1.00, 0.00, -0.00, -1.00, 654.9, 618.0)">s</text><text xml:space="preserve" font-family="CourierNewPSMT" font-size="36.0" fill="#000000" transform="matrix(1.00, 0.00, -0.00, -1.00, 142.0, 443.0)">h</text><text xml:space="preserve" font-family="CourierNewPSMT" font-size="36.0" fill="#000000" transform="matrix(1.00, 0.00, -0.00, -1.00, 163.6, 443.0)">e</text><text xml:space="preserve" font-family="CourierNewPSMT" font-size="36.0" fill="#000000" transform="matrix(1.00, 0.00, -0.00, -1.00, 185.2, 443.0)">l</text><text xml:space="preserve" font-family="CourierNewPSMT" font-size="36.0" fill="#000000" transform="matrix(1.00, 0.00, -0.00, -1.00, 206.8, 443.0)">l</text><text xml:space="preserve" font-family="CourierNewPSMT" font-size="36.0" fill="#000000" transform="matrix(1.00, 0.00, -0.00, -1.00, 228.4, 443.0)">o</text><text xml:space="preserve" font-family="CourierNewPSMT" font-size="36.0" fill="#000000" transform="matrix(1.00, 0.00, -0.00, -1.00, 250.0, 443.0)"> </text><text xml:space="preserve" font-family="CourierNewPSMT" font-size="36.0" fill="#000000" transform="matrix(1.00, 0.00, -0.00, -1.00, 271.6, 443.0)">=</text><text xml:space="preserve" font-family="CourierNewPSMT" font-size="36.0" fill="#000000" transform="matrix(1.00, 0.00, -0.00, -1.00, 293.2, 443.0)"> </text><text xml:space="preserve" font-family="CourierNewPSMT" font-size="36.0" fill="#000000" transform="matrix(1.00, 0.00, -0.00, -1.00, 314.9, 443.0)">f</text><text xml:space="preserve" font-family="CourierNewPSMT" font-size="36.0" fill="#000000" transform="matrix(1.00, 0.00, -0.00, -1.00, 336.5, 443.0)">u</text><text xml:space="preserve" font-family="CourierNewPSMT" font-size="36.0" fill="#000000" transform="matrix(1.00, 0.00, -0.00, -1.00, 358.1, 443.0)">n</text><text xml:space="preserve" font-family="CourierNewPSMT" font-size="36.0" fill="#000000" transform="matrix(1.00, 0.00, -0.00, -1.00, 379.7, 443.0)">c</text><text xml:space="preserve" font-family="CourierNewPSMT" font-size="36.0" fill="#000000" transform="matrix(1.00, 0.00, -0.00, -1.00, 401.3, 443.0)">t</text><text xml:space="preserve" font-family="CourierNewPSMT" font-size="36.0" fill="#000000" transform="matrix(1.00, 0.00, -0.00, -1.00, 422.9, 443.0)">i</text><text xml:space="preserve" font-family="CourierNewPSMT" font-size="36.0" fill="#000000" transform="matrix(1.00, 0.00, -0.00, -1.00, 444.5, 443.0)">o</text><text xml:space="preserve" font-family="CourierNewPSMT" font-size="36.0" fill="#000000" transform="matrix(1.00, 0.00, -0.00, -1.00, 466.1, 443.0)">n</text><text xml:space="preserve" font-family="CourierNewPSMT" font-size="36.0" fill="#000000" transform="matrix(1.00, 0.00, -0.00, -1.00, 487.7, 443.0)">(</text><text xml:space="preserve" font-family="CourierNewPSMT" font-size="36.0" fill="#000000" transform="matrix(1.00, 0.00, -0.00, -1.00, 509.3, 443.0)">)</text><text xml:space="preserve" font-family="CourierNewPSMT" font-size="36.0" fill="#000000" transform="matrix(1.00, 0.00, -0.00, -1.00, 530.9, 443.0)"> </text><text xml:space="preserve" font-family="CourierNewPSMT" font-size="36.0" fill="#000000" transform="matrix(1.00, 0.00, -0.00, -1.00, 142.0, 402.0)"> </text><text xml:space="preserve" font-family="CourierNewPSMT" font-size="36.0" fill="#000000" transform="matrix(1.00, 0.00, -0.00, -1.00, 163.6, 402.0)"> </text><text xml:space="preserve" font-family="CourierNewPSMT" font-size="36.0" fill="#000000" transform="matrix(1.00, 0.00, -0.00, -1.00, 185.2, 402.0)"> </text><text xml:space="preserve" font-family="CourierNewPSMT" font-size="36.0" fill="#000000" transform="matrix(1.00, 0.00, -0.00, -1.00, 206.8, 402.0)">p</text><text xml:space="preserve" font-family="CourierNewPSMT" font-size="36.0" fill="#000000" transform="matrix(1.00, 0.00, -0.00, -1.00, 228.4, 402.0)">r</text><text xml:space="preserve" font-family="CourierNewPSMT" font-size="36.0" fill="#000000" transform="matrix(1.00, 0.00, -0.00, -1.00, 250.0, 402.0)">i</text><text xml:space="preserve" font-family="CourierNewPSMT" font-size="36.0" fill="#000000" transform="matrix(1.00, 0.00, -0.00, -1.00, 271.6, 402.0)">n</text><text xml:space="preserve" font-family="CourierNewPSMT" font-size="36.0" fill="#000000" transform="matrix(1.00, 0.00, -0.00, -1.00, 293.2, 402.0)">t</text><text xml:space="preserve" font-family="CourierNewPSMT" font-size="36.0" fill="#000000" transform="matrix(1.00, 0.00, -0.00, -1.00, 314.9, 402.0)">(</text><text xml:space="preserve" font-family="CourierNewPSMT" font-size="36.0" fill="#000000" transform="matrix(1.00, 0.00, -0.00, -1.00, 336.5, 402.0)">"</text><text xml:space="preserve" font-family="CourierNewPSMT" font-size="36.0" fill="#000000" transform="matrix(1.00, 0.00, -0.00, -1.00, 358.1, 402.0)">h</text><text xml:space="preserve" font-family="CourierNewPSMT" font-size="36.0" fill="#000000" transform="matrix(1.00, 0.00, -0.00, -1.00, 379.7, 402.0)">e</text><text xml:space="preserve" font-family="CourierNewPSMT" font-size="36.0" fill="#000000" transform="matrix(1.00, 0.00, -0.00, -1.00, 401.3, 402.0)">l</text><text xml:space="preserve" font-family="CourierNewPSMT" font-size="36.0" fill="#000000" transform="matrix(1.00, 0.00, -0.00, -1.00, 422.9, 402.0)">l</text><text xml:space="preserve" font-family="CourierNewPSMT" font-size="36.0" fill="#000000" transform="matrix(1.00, 0.00, -0.00, -1.00, 444.5, 402.0)">o</text><text xml:space="preserve" font-family="CourierNewPSMT" font-size="36.0" fill="#000000" transform="matrix(1.00, 0.00, -0.00, -1.00, 466.1, 402.0)">"</text><text xml:space="preserve" font-family="CourierNewPSMT" font-size="36.0" fill="#000000" transform="matrix(1.00, 0.00, -0.00, -1.00, 487.7, 402.0)">)</text><text xml:space="preserve" font-family="CourierNewPSMT" font-size="36.0" fill="#000000" transform="matrix(1.00, 0.00, -0.00, -1.00, 509.3, 402.0)"> </text><text xml:space="preserve" font-family="CourierNewPSMT" font-size="36.0" fill="#000000" transform="matrix(1.00, 0.00, -0.00, -1.00, 142.0, 361.0)">e</text><text xml:space="preserve" font-family="CourierNewPSMT" font-size="36.0" fill="#000000" transform="matrix(1.00, 0.00, -0.00, -1.00, 163.6, 361.0)">n</text><text xml:space="preserve" font-family="CourierNewPSMT" font-size="36.0" fill="#000000" transform="matrix(1.00, 0.00, -0.00, -1.00, 185.2, 361.0)">d</text><text xml:space="preserve" font-family="CourierNewPSMT" font-size="36.0" fill="#000000" transform="matrix(1.00, 0.00, -0.00, -1.00, 206.8, 361.0)"> </text><text xml:space="preserve" font-family="CourierNewPSMT" font-size="36.0" fill="#000000" transform="matrix(1.00, 0.00, -0.00, -1.00, 142.0, 320.0)">h</text><text xml:space="preserve" font-family="CourierNewPSMT" font-size="36.0" fill="#000000" transform="matrix(1.00, 0.00, -0.00, -1.00, 163.6, 320.0)">e</text><text xml:space="preserve" font-family="CourierNewPSMT" font-size="36.0" fill="#000000" transform="matrix(1.00, 0.00, -0.00, -1.00, 185.2, 320.0)">l</text><text xml:space="preserve" font-family="CourierNewPSMT" font-size="36.0" fill="#000000" transform="matrix(1.00, 0.00, -0.00, -1.00, 206.8, 320.0)">l</text><text xml:space="preserve" font-family="CourierNewPSMT" font-size="36.0" fill="#000000" transform="matrix(1.00, 0.00, -0.00, -1.00, 228.4, 320.0)">o</text><text xml:space="preserve" font-family="CourierNewPSMT" font-size="36.0" fill="#000000" transform="matrix(1.00, 0.00, -0.00, -1.00, 250.0, 320.0)">(</text><text xml:space="preserve" font-family="CourierNewPSMT" font-size="36.0" fill="#000000" transform="matrix(1.00, 0.00, -0.00, -1.00, 271.6, 320.0)">)</text></g></svg>