<svg xmlns="http://www.w3.org/2000/svg" xmlns:xlink="http://www.w3.org/1999/xlink" version="1.1" x="0" y="0" width="94" height="95" viewBox="-1.1 -1.5 94 95" enable-background="new -1.149 -1.513 94 95" xml:space="preserve"><style>.s0{stop-color:#92302A;}.s1{stop-color:#A5302A;}.s2{stop-color:#D62B27;}</style><defs><path id="SVGID_4_" d="M45.7 18.1c6.4 1.6 12.5 5.3 17.6 10.4 14.6 14.6 14.9 38 1 52.9 0.6-0.3 1.2-0.7 1.8-1 2.7-0.1 5.4 0.4 7.8 1.6 3.1-2.5 5.9-5.3 8.3-8.5 -1.2-2.4-1.9-5.1-1.8-7.8 1.8-3.1 3.1-6.4 4-9.8 1.8-2 4.2-3.5 6.7-4.4 0.2-1.8 0.3-3.7 0.3-5.5 0-2.2-0.1-4.3-0.4-6.3 -2.6-0.8-4.9-2.3-6.8-4.3 -0.7-2.7-1.8-5.7-3.1-8.3C73.8 20.3 64.5 16.9 55.2 16.9 52 16.9 48.8 17.3 45.7 18.1"/></defs><clipPath id="SVGID_5_"><use xlink:href="#SVGID_4_" overflow="visible"/></clipPath><linearGradient id="SVGID_6_" gradientUnits="userSpaceOnUse" x1="-99.1" y1="346.7" x2="-98.1" y2="346.7" gradientTransform="matrix(-1.530000e-05 246.1288 246.1288 1.530000e-05 -85267.7891 24314.4082)"><stop offset="0" stop-color="#92302A"/><stop offset="0.3" stop-color="#92302A"/><stop offset="0.4" stop-color="#A5302A"/><stop offset="0.5" stop-color="#D62B27"/><stop offset="1" stop-color="#D62B27"/></linearGradient><rect x="45.7" y="16.9" clip-path="url(#SVGID_5_)" fill="url(#SVGID_6_)" width="45.7" height="65.1"/><defs><path id="SVGID_3_" d="M63.3 63.9c-14.6 14.6-38 14.9-52.9 1 0.3 0.6 0.7 1.2 1 1.8 0.1 2.7-0.4 5.4-1.6 7.8 2.5 3.1 5.3 5.9 8.5 8.3 2.4-1.2 5.1-1.9 7.8-1.8 3.1 1.8 6.4 3.1 9.8 4 2 1.8 3.5 4.2 4.4 6.7 1.8 0.2 3.7 0.3 5.5 0.3 2.2 0 4.3-0.1 6.3-0.4 0.8-2.6 2.3-4.9 4.3-6.8 2.7-0.7 5.4-1.8 7.9-3.1 9.1-9.8 12.1-23.2 9-35.4C71.6 52.8 68.3 58.8 63.3 63.9"/></defs><clipPath id="SVGID_7_"><use xlink:href="#SVGID_3_" overflow="visible"/></clipPath><linearGradient id="SVGID_8_" gradientUnits="userSpaceOnUse" x1="-100" y1="347.6" x2="-99" y2="347.6" gradientTransform="matrix(-244.7718 -1.530000e-05 -1.530000e-05 244.7718 -24315.7266 -85003.0078)"><stop offset="0" stop-color="#92302A"/><stop offset="0.3" stop-color="#92302A"/><stop offset="0.4" stop-color="#A5302A"/><stop offset="0.5" stop-color="#D62B27"/><stop offset="1" stop-color="#D62B27"/></linearGradient><rect x="9.7" y="46.3" clip-path="url(#SVGID_7_)" fill="url(#SVGID_8_)" width="66.7" height="45.7"/><defs><path id="SVGID_2_" d="M39.4 0.4c-0.8 2.6-2.3 4.9-4.3 6.8 -2.7 0.7-5.4 1.8-7.9 3.1 -9.1 9.8-12.1 23.2-9 35.4 1.6-6.4 5-12.5 10-17.5 14.6-14.6 38-14.9 52.9-1 -0.3-0.6-0.7-1.2-1-1.8 -0.1-2.7 0.4-5.4 1.6-7.8 -2.5-3.1-5.3-5.9-8.5-8.3 -2.4 1.3-5.1 1.9-7.8 1.8 -3.1-1.8-6.4-3.1-9.8-4 -2-1.8-3.5-4.2-4.4-6.7C49.5 0.1 47.6 0 45.7 0 43.6 0 41.5 0.2 39.4 0.4"/></defs><clipPath id="SVGID_9_"><use xlink:href="#SVGID_2_" overflow="visible"/></clipPath><linearGradient id="SVGID_10_" gradientUnits="userSpaceOnUse" x1="-99.9" y1="345.8" x2="-98.9" y2="345.8" gradientTransform="matrix(244.7718 1.530000e-05 1.530000e-05 -244.7718 24385.7617 84660.7266)"><stop offset="0" stop-color="#92302A"/><stop offset="0.3" stop-color="#92302A"/><stop offset="0.4" stop-color="#A5302A"/><stop offset="0.5" stop-color="#D62B27"/><stop offset="1" stop-color="#D62B27"/></linearGradient><rect x="15.1" clip-path="url(#SVGID_9_)" fill="url(#SVGID_10_)" width="66.7" height="45.7"/><defs><path id="SVGID_1_" d="M9.2 18.8c1.3 2.4 1.9 5.1 1.8 7.8 -1.8 3.1-3.1 6.4-4 9.8 -1.8 2-4.2 3.5-6.7 4.4C0.1 42.6 0 44.5 0 46.3c0 2.2 0.2 4.3 0.4 6.3 2.6 0.8 4.9 2.3 6.8 4.3 0.7 2.7 1.8 5.4 3.1 7.9 9.8 9.1 23.2 12.1 35.4 9 -6.4-1.6-12.5-5-17.5-10 -14.6-14.6-14.9-38-1-52.9 -0.6 0.3-1.2 0.7-1.8 1 -2.7 0.1-5.4-0.4-7.8-1.6C14.4 12.8 11.6 15.6 9.2 18.8"/></defs><clipPath id="SVGID_11_"><use xlink:href="#SVGID_1_" overflow="visible"/></clipPath><linearGradient id="SVGID_12_" gradientUnits="userSpaceOnUse" x1="-100.9" y1="346.6" x2="-99.9" y2="346.6" gradientTransform="matrix(1.530000e-05 -244.7662 -244.7662 -1.530000e-05 84865.4062 -24521.0605)"><stop offset="0" stop-color="#92302A"/><stop offset="0.3" stop-color="#92302A"/><stop offset="0.4" stop-color="#A5302A"/><stop offset="0.5" stop-color="#D62B27"/><stop offset="1" stop-color="#D62B27"/></linearGradient><rect y="10.3" clip-path="url(#SVGID_11_)" fill="url(#SVGID_12_)" width="45.7" height="66.6"/></svg>