<?xml version="1.0" encoding="UTF-8" standalone="no"?>
<!DOCTYPE svg PUBLIC "-//W3C//DTD SVG 1.1//EN"
 "http://www.w3.org/Graphics/SVG/1.1/DTD/svg11.dtd">
<!-- Generated by graphviz version 2.38.0 (20140413.2041)
 -->
<!-- Title: z Pages: 1 -->
<svg width="717pt" height="216pt"
 viewBox="0.00 0.00 717.21 216.00" xmlns="http://www.w3.org/2000/svg" xmlns:xlink="http://www.w3.org/1999/xlink">
<g id="graph0" class="graph" transform="scale(1 1) rotate(0) translate(4 212)">
<title>z</title>
<polygon fill="white" stroke="none" points="-4,4 -4,-212 713.21,-212 713.21,4 -4,4"/>
<!-- server -->
<g id="node1" class="node"><title>server</title>
<ellipse fill="none" stroke="black" cx="224.558" cy="-190" rx="58.4823" ry="18"/>
<text text-anchor="middle" x="224.558" y="-185.8" font-family="Times,serif" font-size="14.00">Utiaji::Server</text>
</g>
<!-- handler -->
<g id="node2" class="node"><title>handler</title>
<ellipse fill="none" stroke="black" cx="389.558" cy="-190" rx="63.7855" ry="18"/>
<text text-anchor="middle" x="389.558" y="-185.8" font-family="Times,serif" font-size="14.00">Utiaji::Handler</text>
</g>
<!-- server&#45;&gt;handler -->
<g id="edge1" class="edge"><title>server&#45;&gt;handler</title>
<path fill="none" stroke="black" d="M283.196,-190C293.655,-190 304.674,-190 315.497,-190"/>
<polygon fill="black" stroke="black" points="315.789,-193.5 325.789,-190 315.789,-186.5 315.789,-193.5"/>
<text text-anchor="middle" x="304.357" y="-195.8" font-family="Times,serif" font-size="14.00">does</text>
</g>
<!-- app -->
<g id="node4" class="node"><title>app</title>
<ellipse fill="none" stroke="black" cx="224.558" cy="-104" rx="50.281" ry="18"/>
<text text-anchor="middle" x="224.558" y="-99.8" font-family="Times,serif" font-size="14.00">Utiaji::App</text>
</g>
<!-- server&#45;&gt;app -->
<g id="edge3" class="edge"><title>server&#45;&gt;app</title>
<path fill="none" stroke="black" d="M224.558,-171.595C224.558,-160.257 224.558,-145.227 224.558,-132.315"/>
<polygon fill="black" stroke="black" points="228.059,-132.095 224.558,-122.095 221.059,-132.095 228.059,-132.095"/>
<text text-anchor="middle" x="233.889" y="-142.8" font-family="Times,serif" font-size="14.00">has</text>
</g>
<!-- dispatcher -->
<g id="node3" class="node"><title>dispatcher</title>
<ellipse fill="none" stroke="black" cx="570.558" cy="-190" rx="73.4326" ry="18"/>
<text text-anchor="middle" x="570.558" y="-185.8" font-family="Times,serif" font-size="14.00">Utiaji::Dispatcher</text>
</g>
<!-- handler&#45;&gt;dispatcher -->
<g id="edge2" class="edge"><title>handler&#45;&gt;dispatcher</title>
<path fill="none" stroke="black" d="M453.372,-190C464.126,-190 475.432,-190 486.604,-190"/>
<polygon fill="black" stroke="black" points="486.806,-193.5 496.806,-190 486.806,-186.5 486.806,-193.5"/>
<text text-anchor="middle" x="475.147" y="-195.8" font-family="Times,serif" font-size="14.00">does</text>
</g>
<!-- request -->
<g id="node6" class="node"><title>request</title>
<ellipse fill="none" stroke="black" cx="645.558" cy="-104" rx="63.8028" ry="18"/>
<text text-anchor="middle" x="645.558" y="-99.8" font-family="Times,serif" font-size="14.00">Utiaji::Request</text>
</g>
<!-- dispatcher&#45;&gt;request -->
<g id="edge5" class="edge"><title>dispatcher&#45;&gt;request</title>
<path fill="none" stroke="black" d="M585.736,-172.001C596.685,-159.739 611.625,-143.005 623.836,-129.329"/>
<polygon fill="black" stroke="black" points="626.61,-131.477 630.66,-121.687 621.389,-126.815 626.61,-131.477"/>
<text text-anchor="middle" x="620.889" y="-142.8" font-family="Times,serif" font-size="14.00">has</text>
</g>
<!-- response -->
<g id="node7" class="node"><title>response</title>
<ellipse fill="none" stroke="black" cx="494.558" cy="-104" rx="69.1151" ry="18"/>
<text text-anchor="middle" x="494.558" y="-99.8" font-family="Times,serif" font-size="14.00">Utiaji::Response</text>
</g>
<!-- dispatcher&#45;&gt;response -->
<g id="edge6" class="edge"><title>dispatcher&#45;&gt;response</title>
<path fill="none" stroke="black" d="M555.179,-172.001C544.084,-159.739 528.944,-143.005 516.57,-129.329"/>
<polygon fill="black" stroke="black" points="518.96,-126.754 509.656,-121.687 513.77,-131.45 518.96,-126.754"/>
<text text-anchor="middle" x="545.889" y="-142.8" font-family="Times,serif" font-size="14.00">has</text>
</g>
<!-- router -->
<g id="node8" class="node"><title>router</title>
<ellipse fill="none" stroke="black" cx="160.558" cy="-18" rx="59.4599" ry="18"/>
<text text-anchor="middle" x="160.558" y="-13.8" font-family="Times,serif" font-size="14.00">Utiaji::Router</text>
</g>
<!-- app&#45;&gt;router -->
<g id="edge7" class="edge"><title>app&#45;&gt;router</title>
<path fill="none" stroke="black" d="M211.914,-86.4043C202.683,-74.2882 190.009,-57.6541 179.562,-43.9422"/>
<polygon fill="black" stroke="black" points="182.24,-41.6819 173.396,-35.8487 176.672,-45.9242 182.24,-41.6819"/>
<text text-anchor="middle" x="205.889" y="-56.8" font-family="Times,serif" font-size="14.00">has</text>
</g>
<!-- pim -->
<g id="node5" class="node"><title>pim</title>
<ellipse fill="none" stroke="black" cx="69.5584" cy="-104" rx="69.6169" ry="18"/>
<text text-anchor="middle" x="69.5584" y="-99.8" font-family="Times,serif" font-size="14.00">Utiaji::App::Pim</text>
</g>
<!-- pim&#45;&gt;app -->
<g id="edge4" class="edge"><title>pim&#45;&gt;app</title>
<path fill="none" stroke="black" d="M139.35,-104C147.395,-104 155.553,-104 163.471,-104"/>
<polygon fill="black" stroke="black" points="163.712,-107.5 173.712,-104 163.712,-100.5 163.712,-107.5"/>
<text text-anchor="middle" x="156.642" y="-109.8" font-family="Times,serif" font-size="14.00">is</text>
</g>
<!-- pim&#45;&gt;router -->
<g id="edge8" class="edge"><title>pim&#45;&gt;router</title>
<path fill="none" stroke="black" d="M87.5371,-86.4043C101.211,-73.7825 120.196,-56.2575 135.381,-42.2409"/>
<polygon fill="black" stroke="black" points="137.953,-44.6301 142.927,-35.2754 133.205,-39.4864 137.953,-44.6301"/>
<text text-anchor="middle" x="129.889" y="-56.8" font-family="Times,serif" font-size="14.00">has</text>
</g>
<!-- route -->
<g id="node9" class="node"><title>route</title>
<ellipse fill="none" stroke="black" cx="346.558" cy="-18" rx="56.07" ry="18"/>
<text text-anchor="middle" x="346.558" y="-13.8" font-family="Times,serif" font-size="14.00">Utiaji::Route</text>
</g>
<!-- router&#45;&gt;route -->
<g id="edge9" class="edge"><title>router&#45;&gt;route</title>
<path fill="none" stroke="black" d="M219.921,-18C239.024,-18 260.316,-18 279.907,-18"/>
<polygon fill="black" stroke="black" points="279.976,-21.5001 289.976,-18 279.976,-14.5001 279.976,-21.5001"/>
<text text-anchor="middle" x="255.031" y="-23.8" font-family="Times,serif" font-size="14.00">has many</text>
</g>
<!-- pattern -->
<g id="node10" class="node"><title>pattern</title>
<ellipse fill="none" stroke="black" cx="499.558" cy="-18" rx="60.4202" ry="18"/>
<text text-anchor="middle" x="499.558" y="-13.8" font-family="Times,serif" font-size="14.00">Utiaji::Pattern</text>
</g>
<!-- route&#45;&gt;pattern -->
<g id="edge10" class="edge"><title>route&#45;&gt;pattern</title>
<path fill="none" stroke="black" d="M403.095,-18C411.539,-18 420.331,-18 429.02,-18"/>
<polygon fill="black" stroke="black" points="429.145,-21.5001 439.145,-18 429.145,-14.5001 429.145,-21.5001"/>
<text text-anchor="middle" x="421.096" y="-23.8" font-family="Times,serif" font-size="14.00">has</text>
</g>
</g>
</svg>
