<?xml version="1.0" encoding="UTF-8" standalone="no"?>
<!DOCTYPE svg PUBLIC "-//W3C//DTD SVG 1.1//EN"
 "http://www.w3.org/Graphics/SVG/1.1/DTD/svg11.dtd">
<!-- Generated by graphviz version 2.38.0 (20140413.2041)
 -->
<!-- Title: z Pages: 1 -->
<svg width="639pt" height="372pt"
 viewBox="0.00 0.00 639.24 372.00" xmlns="http://www.w3.org/2000/svg" xmlns:xlink="http://www.w3.org/1999/xlink">
<g id="graph0" class="graph" transform="scale(1 1) rotate(0) translate(4 368)">
<title>z</title>
<polygon fill="white" stroke="none" points="-4,4 -4,-368 635.243,-368 635.243,4 -4,4"/>
<!-- app -->
<g id="node1" class="node"><title>app</title>
<ellipse fill="none" stroke="black" cx="69.5584" cy="-346" rx="69.6169" ry="18"/>
<text text-anchor="middle" x="69.5584" y="-341.8" font-family="Times,serif" font-size="14.00">Utiaji::App::Pim</text>
</g>
<!-- model -->
<g id="node2" class="node"><title>model</title>
<ellipse fill="none" stroke="black" cx="251.558" cy="-346" rx="77.3348" ry="18"/>
<text text-anchor="middle" x="251.558" y="-341.8" font-family="Times,serif" font-size="14.00">Utiaji::Model::Pim</text>
</g>
<!-- app&#45;&gt;model -->
<g id="edge1" class="edge"><title>app&#45;&gt;model</title>
<path fill="none" stroke="black" d="M139.144,-346C147.277,-346 155.652,-346 163.989,-346"/>
<polygon fill="black" stroke="black" points="164.119,-349.5 174.119,-346 164.119,-342.5 164.119,-349.5"/>
<text text-anchor="middle" x="156.629" y="-351" font-family="Courier 10 Pitch" font-size="10.00">has</text>
</g>
<!-- cal -->
<g id="node7" class="node"><title>cal</title>
<ellipse fill="none" stroke="black" cx="148.558" cy="-264" rx="27" ry="18"/>
<text text-anchor="middle" x="148.558" y="-259.8" font-family="Times,serif" font-size="14.00">Cal</text>
</g>
<!-- model&#45;&gt;cal -->
<g id="edge14" class="edge"><title>model&#45;&gt;cal</title>
<path fill="none" stroke="black" d="M230.217,-328.424C213.709,-315.602 190.817,-297.823 173.471,-284.35"/>
<polygon fill="black" stroke="black" points="175.498,-281.492 165.453,-278.122 171.204,-287.021 175.498,-281.492"/>
<text text-anchor="middle" x="213.62" y="-302" font-family="Courier 10 Pitch" font-size="10.00">has</text>
</g>
<!-- wiki -->
<g id="node9" class="node"><title>wiki</title>
<ellipse fill="none" stroke="black" cx="355.558" cy="-264" rx="27.3795" ry="18"/>
<text text-anchor="middle" x="355.558" y="-259.8" font-family="Times,serif" font-size="14.00">Wiki</text>
</g>
<!-- model&#45;&gt;wiki -->
<g id="edge15" class="edge"><title>model&#45;&gt;wiki</title>
<path fill="none" stroke="black" d="M272.855,-328.618C289.504,-315.811 312.695,-297.972 330.284,-284.442"/>
<polygon fill="black" stroke="black" points="332.623,-287.059 338.415,-278.187 328.355,-281.51 332.623,-287.059"/>
<text text-anchor="middle" x="317.62" y="-302" font-family="Courier 10 Pitch" font-size="10.00">has</text>
</g>
<!-- addressbook -->
<g id="node11" class="node"><title>addressbook</title>
<ellipse fill="none" stroke="black" cx="251.558" cy="-264" rx="58.0083" ry="18"/>
<text text-anchor="middle" x="251.558" y="-259.8" font-family="Times,serif" font-size="14.00">AddressBook</text>
</g>
<!-- model&#45;&gt;addressbook -->
<g id="edge16" class="edge"><title>model&#45;&gt;addressbook</title>
<path fill="none" stroke="black" d="M251.558,-327.641C251.558,-317.297 251.558,-303.941 251.558,-292.221"/>
<polygon fill="black" stroke="black" points="255.059,-292.05 251.558,-282.05 248.059,-292.05 255.059,-292.05"/>
<text text-anchor="middle" x="259.62" y="-302" font-family="Courier 10 Pitch" font-size="10.00">has</text>
</g>
<!-- day -->
<g id="node3" class="node"><title>day</title>
<ellipse fill="none" stroke="black" cx="322.558" cy="-182" rx="27" ry="18"/>
<text text-anchor="middle" x="322.558" y="-177.8" font-family="Times,serif" font-size="14.00">Day</text>
</g>
<!-- saveable -->
<g id="node4" class="node"><title>saveable</title>
<ellipse fill="none" stroke="black" cx="413.558" cy="-100" rx="42.0524" ry="18"/>
<text text-anchor="middle" x="413.558" y="-95.8" font-family="Times,serif" font-size="14.00">Saveable</text>
</g>
<!-- day&#45;&gt;saveable -->
<g id="edge2" class="edge"><title>day&#45;&gt;saveable</title>
<path fill="none" stroke="black" d="M338.409,-167.065C352.112,-155.019 372.17,-137.386 388.117,-123.366"/>
<polygon fill="black" stroke="black" points="390.827,-125.644 396.026,-116.413 386.205,-120.387 390.827,-125.644"/>
<text text-anchor="middle" x="383.401" y="-138" font-family="Courier 10 Pitch" font-size="10.00">does</text>
</g>
<!-- serializable -->
<g id="node5" class="node"><title>serializable</title>
<ellipse fill="none" stroke="black" cx="301.558" cy="-100" rx="51.6916" ry="18"/>
<text text-anchor="middle" x="301.558" y="-95.8" font-family="Times,serif" font-size="14.00">Serializable</text>
</g>
<!-- day&#45;&gt;serializable -->
<g id="edge3" class="edge"><title>day&#45;&gt;serializable</title>
<path fill="none" stroke="black" d="M299.993,-171.87C289.099,-166.175 277.07,-157.679 270.874,-146 267.072,-138.835 269.264,-131.419 273.859,-124.724"/>
<polygon fill="black" stroke="black" points="276.871,-126.586 280.694,-116.704 271.544,-122.045 276.871,-126.586"/>
<text text-anchor="middle" x="281.401" y="-138" font-family="Courier 10 Pitch" font-size="10.00">does</text>
</g>
<!-- referencable -->
<g id="node6" class="node"><title>referencable</title>
<ellipse fill="none" stroke="black" cx="539.558" cy="-100" rx="56.9943" ry="18"/>
<text text-anchor="middle" x="539.558" y="-95.8" font-family="Times,serif" font-size="14.00">Referencable</text>
</g>
<!-- day&#45;&gt;referencable -->
<g id="edge4" class="edge"><title>day&#45;&gt;referencable</title>
<path fill="none" stroke="black" d="M343.489,-170.464C348.94,-168.048 354.879,-165.695 360.558,-164 408.87,-149.583 425.653,-164.485 472.558,-146 480.439,-142.894 495.821,-132.685 509.86,-122.774"/>
<polygon fill="black" stroke="black" points="512.248,-125.37 518.349,-116.708 508.178,-119.674 512.248,-125.37"/>
<text text-anchor="middle" x="499.401" y="-138" font-family="Courier 10 Pitch" font-size="10.00">does</text>
</g>
<!-- db -->
<g id="node13" class="node"><title>db</title>
<ellipse fill="none" stroke="black" cx="321.558" cy="-18" rx="47.3909" ry="18"/>
<text text-anchor="middle" x="321.558" y="-13.8" font-family="Times,serif" font-size="14.00">Utiaji::DB</text>
</g>
<!-- saveable&#45;&gt;db -->
<g id="edge21" class="edge"><title>saveable&#45;&gt;db</title>
<path fill="none" stroke="black" d="M395.82,-83.5752C382.125,-71.6665 362.973,-55.0129 347.549,-41.6009"/>
<polygon fill="black" stroke="black" points="349.715,-38.8457 339.872,-34.925 345.122,-44.128 349.715,-38.8457"/>
<text text-anchor="middle" x="380.62" y="-56" font-family="Courier 10 Pitch" font-size="10.00">has</text>
</g>
<!-- cal&#45;&gt;day -->
<g id="edge5" class="edge"><title>cal&#45;&gt;day</title>
<path fill="none" stroke="black" d="M169.857,-252.886C174.686,-250.609 179.794,-248.212 184.558,-246 221.097,-229.033 263.241,-209.85 291.246,-197.156"/>
<polygon fill="black" stroke="black" points="292.864,-200.265 300.53,-192.951 289.976,-193.889 292.864,-200.265"/>
<text text-anchor="middle" x="266.236" y="-220" font-family="Courier 10 Pitch" font-size="10.00">has many</text>
</g>
<!-- searchable -->
<g id="node8" class="node"><title>searchable</title>
<ellipse fill="none" stroke="black" cx="182.558" cy="-100" rx="48.7928" ry="18"/>
<text text-anchor="middle" x="182.558" y="-95.8" font-family="Times,serif" font-size="14.00">Searchable</text>
</g>
<!-- cal&#45;&gt;searchable -->
<g id="edge6" class="edge"><title>cal&#45;&gt;searchable</title>
<path fill="none" stroke="black" d="M142.944,-246.121C137.173,-226.077 130.161,-191.855 138.874,-164 143.306,-149.828 152.172,-136.044 160.765,-125.001"/>
<polygon fill="black" stroke="black" points="163.582,-127.085 167.205,-117.129 158.164,-122.652 163.582,-127.085"/>
<text text-anchor="middle" x="150.401" y="-179" font-family="Courier 10 Pitch" font-size="10.00">does</text>
</g>
<!-- searchable&#45;&gt;db -->
<g id="edge20" class="edge"><title>searchable&#45;&gt;db</title>
<path fill="none" stroke="black" d="M207.73,-84.5126C230.166,-71.5997 263.18,-52.5988 287.884,-38.3812"/>
<polygon fill="black" stroke="black" points="289.653,-41.4014 296.574,-33.3796 286.161,-35.3344 289.653,-41.4014"/>
<text text-anchor="middle" x="267.62" y="-56" font-family="Courier 10 Pitch" font-size="10.00">has</text>
</g>
<!-- wiki&#45;&gt;searchable -->
<g id="edge7" class="edge"><title>wiki&#45;&gt;searchable</title>
<path fill="none" stroke="black" d="M348.049,-246.293C342.964,-236.737 335.381,-225.246 325.558,-218 302.919,-201.3 288.363,-215.482 264.874,-200 249.531,-189.888 219.943,-151.929 200.736,-126.064"/>
<polygon fill="black" stroke="black" points="203.406,-123.787 194.655,-117.813 197.771,-127.94 203.406,-123.787"/>
<text text-anchor="middle" x="275.401" y="-179" font-family="Courier 10 Pitch" font-size="10.00">does</text>
</g>
<!-- page -->
<g id="node10" class="node"><title>page</title>
<ellipse fill="none" stroke="black" cx="532.558" cy="-182" rx="27.0958" ry="18"/>
<text text-anchor="middle" x="532.558" y="-177.8" font-family="Times,serif" font-size="14.00">Page</text>
</g>
<!-- wiki&#45;&gt;page -->
<g id="edge8" class="edge"><title>wiki&#45;&gt;page</title>
<path fill="none" stroke="black" stroke-dasharray="5,2" d="M377.618,-253.03C408.705,-238.979 465.569,-213.277 501.087,-197.224"/>
<polygon fill="black" stroke="black" points="502.829,-200.278 510.5,-192.97 499.946,-193.899 502.829,-200.278"/>
<text text-anchor="middle" x="476.236" y="-220" font-family="Courier 10 Pitch" font-size="10.00">has many</text>
</g>
<!-- page&#45;&gt;saveable -->
<g id="edge9" class="edge"><title>page&#45;&gt;saveable</title>
<path fill="none" stroke="black" d="M550.582,-167.922C561.129,-158.679 570.881,-146.175 562.558,-136 537.007,-104.763 512.779,-127.508 473.558,-118 468.166,-116.693 462.528,-115.228 456.959,-113.72"/>
<polygon fill="black" stroke="black" points="457.648,-110.279 447.076,-110.986 455.781,-117.026 457.648,-110.279"/>
<text text-anchor="middle" x="576.401" y="-138" font-family="Courier 10 Pitch" font-size="10.00">does</text>
</g>
<!-- page&#45;&gt;serializable -->
<g id="edge10" class="edge"><title>page&#45;&gt;serializable</title>
<path fill="none" stroke="black" d="M509.406,-172.195C492.025,-165.428 467.734,-155.637 446.874,-146 438.098,-141.946 436.557,-139.531 427.558,-136 399.654,-125.05 391.441,-126.024 362.558,-118 358.566,-116.891 354.428,-115.74 350.272,-114.584"/>
<polygon fill="black" stroke="black" points="351.178,-111.203 340.606,-111.892 349.3,-117.946 351.178,-111.203"/>
<text text-anchor="middle" x="457.401" y="-138" font-family="Courier 10 Pitch" font-size="10.00">does</text>
</g>
<!-- page&#45;&gt;referencable -->
<g id="edge11" class="edge"><title>page&#45;&gt;referencable</title>
<path fill="none" stroke="black" d="M558.513,-176.307C575.64,-171.717 596.83,-162.846 607.558,-146 615.556,-133.442 605.506,-123.607 590.886,-116.378"/>
<polygon fill="black" stroke="black" points="591.88,-112.993 581.314,-112.212 589.086,-119.412 591.88,-112.993"/>
<text text-anchor="middle" x="620.401" y="-138" font-family="Courier 10 Pitch" font-size="10.00">does</text>
</g>
<!-- addressbook&#45;&gt;searchable -->
<g id="edge13" class="edge"><title>addressbook&#45;&gt;searchable</title>
<path fill="none" stroke="black" stroke-dasharray="5,2" d="M235.997,-246.597C231.053,-240.947 225.779,-234.42 221.558,-228 201.311,-197.205 191.146,-155.374 186.364,-128.282"/>
<polygon fill="black" stroke="black" points="189.805,-127.635 184.734,-118.332 182.897,-128.767 189.805,-127.635"/>
<text text-anchor="middle" x="217.401" y="-179" font-family="Courier 10 Pitch" font-size="10.00">does</text>
</g>
<!-- person -->
<g id="node12" class="node"><title>person</title>
<ellipse fill="none" stroke="black" cx="403.558" cy="-182" rx="34.3614" ry="18"/>
<text text-anchor="middle" x="403.558" y="-177.8" font-family="Times,serif" font-size="14.00">Person</text>
</g>
<!-- addressbook&#45;&gt;person -->
<g id="edge12" class="edge"><title>addressbook&#45;&gt;person</title>
<path fill="none" stroke="black" d="M279.792,-248.14C305.597,-234.559 343.756,-214.475 370.872,-200.203"/>
<polygon fill="black" stroke="black" points="372.746,-203.172 379.965,-195.418 369.485,-196.978 372.746,-203.172"/>
<text text-anchor="middle" x="358.236" y="-220" font-family="Courier 10 Pitch" font-size="10.00">has many</text>
</g>
<!-- person&#45;&gt;saveable -->
<g id="edge17" class="edge"><title>person&#45;&gt;saveable</title>
<path fill="none" stroke="black" stroke-dasharray="5,2" d="M403.778,-163.844C404.055,-155.424 404.643,-145.148 405.874,-136 406.222,-133.41 406.663,-130.729 407.157,-128.054"/>
<polygon fill="black" stroke="black" points="410.641,-128.491 409.239,-117.99 403.786,-127.073 410.641,-128.491"/>
<text text-anchor="middle" x="416.401" y="-138" font-family="Courier 10 Pitch" font-size="10.00">does</text>
</g>
<!-- person&#45;&gt;serializable -->
<g id="edge18" class="edge"><title>person&#45;&gt;serializable</title>
<path fill="none" stroke="black" stroke-dasharray="5,2" d="M377.303,-170.362C364.337,-164.358 348.931,-156.04 336.874,-146 330.113,-140.37 323.802,-133.247 318.439,-126.339"/>
<polygon fill="black" stroke="black" points="320.932,-123.82 312.191,-117.833 315.29,-127.964 320.932,-123.82"/>
<text text-anchor="middle" x="347.401" y="-138" font-family="Courier 10 Pitch" font-size="10.00">does</text>
</g>
<!-- person&#45;&gt;referencable -->
<g id="edge19" class="edge"><title>person&#45;&gt;referencable</title>
<path fill="none" stroke="black" stroke-dasharray="5,2" d="M436.91,-177.884C461.654,-174.018 494.891,-165.365 517.558,-146 523.245,-141.142 527.593,-134.47 530.861,-127.75"/>
<polygon fill="black" stroke="black" points="534.277,-128.654 534.906,-118.077 527.819,-125.953 534.277,-128.654"/>
<text text-anchor="middle" x="536.401" y="-138" font-family="Courier 10 Pitch" font-size="10.00">does</text>
</g>
</g>
</svg>
