<?xml version="1.0" encoding="UTF-8" standalone="no"?><svg xmlns="http://www.w3.org/2000/svg" xmlns:xlink="http://www.w3.org/1999/xlink" clip-rule="evenodd" stroke-miterlimit="4.00" viewBox="0 0 1024 768"><desc>SVG generated by Keynote</desc><defs></defs><g transform="matrix(1.00, 0.00, -0.00, -1.00, 0.0, 768.0)"><path d="M 0.0 768.0 L 1024.0 768.0 L 1024.0 0.0 L 0.0 0.0 Z M 0.0 768.0 " fill="#FEFFFF"></path><text xml:space="preserve" font-family="Helvetica-Light" font-size="80.0" fill="#000000" transform="matrix(1.00, 0.00, -0.00, -1.00, 244.0, 618.0)">D</text><text xml:space="preserve" font-family="Helvetica-Light" font-size="80.0" fill="#000000" transform="matrix(1.00, 0.00, -0.00, -1.00, 301.8, 618.0)">a</text><text xml:space="preserve" font-family="Helvetica-Light" font-size="80.0" fill="#000000" transform="matrix(1.00, 0.00, -0.00, -1.00, 346.2, 618.0)">t</text><text xml:space="preserve" font-family="Helvetica-Light" font-size="80.0" fill="#000000" transform="matrix(1.00, 0.00, -0.00, -1.00, 368.5, 618.0)">a</text><text xml:space="preserve" font-family="Helvetica-Light" font-size="80.0" fill="#000000" transform="matrix(1.00, 0.00, -0.00, -1.00, 413.0, 618.0)"> </text><text xml:space="preserve" font-family="Helvetica-Light" font-size="80.0" fill="#000000" transform="matrix(1.00, 0.00, -0.00, -1.00, 435.2, 618.0)">S</text><text xml:space="preserve" font-family="Helvetica-Light" font-size="80.0" fill="#000000" transform="matrix(1.00, 0.00, -0.00, -1.00, 484.1, 618.0)">t</text><text xml:space="preserve" font-family="Helvetica-Light" font-size="80.0" fill="#000000" transform="matrix(1.00, 0.00, -0.00, -1.00, 506.3, 618.0)">r</text><text xml:space="preserve" font-family="Helvetica-Light" font-size="80.0" fill="#000000" transform="matrix(1.00, 0.00, -0.00, -1.00, 533.0, 618.0)">u</text><text xml:space="preserve" font-family="Helvetica-Light" font-size="80.0" fill="#000000" transform="matrix(1.00, 0.00, -0.00, -1.00, 577.4, 618.0)">c</text><text xml:space="preserve" font-family="Helvetica-Light" font-size="80.0" fill="#000000" transform="matrix(1.00, 0.00, -0.00, -1.00, 621.9, 618.0)">t</text><text xml:space="preserve" font-family="Helvetica-Light" font-size="80.0" fill="#000000" transform="matrix(1.00, 0.00, -0.00, -1.00, 644.2, 618.0)">u</text><text xml:space="preserve" font-family="Helvetica-Light" font-size="80.0" fill="#000000" transform="matrix(1.00, 0.00, -0.00, -1.00, 688.6, 618.0)">r</text><text xml:space="preserve" font-family="Helvetica-Light" font-size="80.0" fill="#000000" transform="matrix(1.00, 0.00, -0.00, -1.00, 713.8, 618.0)">e</text><text xml:space="preserve" font-family="Helvetica-Light" font-size="80.0" fill="#000000" transform="matrix(1.00, 0.00, -0.00, -1.00, 758.3, 618.0)">s</text><text xml:space="preserve" font-family="Helvetica" font-size="27.0" fill="#000000" transform="matrix(1.00, 0.00, -0.00, -1.00, 140.9, 554.7)">•</text><text xml:space="preserve" font-family="Helvetica" font-size="36.0" fill="#000000" transform="matrix(1.00, 0.00, -0.00, -1.00, 176.0, 551.0)">t</text><text xml:space="preserve" font-family="Helvetica" font-size="36.0" fill="#000000" transform="matrix(1.00, 0.00, -0.00, -1.00, 186.0, 551.0)">a</text><text xml:space="preserve" font-family="Helvetica" font-size="36.0" fill="#000000" transform="matrix(1.00, 0.00, -0.00, -1.00, 206.0, 551.0)">b</text><text xml:space="preserve" font-family="Helvetica" font-size="36.0" fill="#000000" transform="matrix(1.00, 0.00, -0.00, -1.00, 226.1, 551.0)">l</text><text xml:space="preserve" font-family="Helvetica" font-size="36.0" fill="#000000" transform="matrix(1.00, 0.00, -0.00, -1.00, 234.1, 551.0)">e</text><text xml:space="preserve" font-family="Helvetica" font-size="36.0" fill="#000000" transform="matrix(1.00, 0.00, -0.00, -1.00, 254.1, 551.0)"> </text><text xml:space="preserve" font-family="Helvetica" font-size="36.0" fill="#000000" transform="matrix(1.00, 0.00, -0.00, -1.00, 264.1, 551.0)">(</text><text xml:space="preserve" font-family="Helvetica" font-size="36.0" fill="#000000" transform="matrix(1.00, 0.00, -0.00, -1.00, 276.1, 551.0)">d</text><text xml:space="preserve" font-family="Helvetica" font-size="36.0" fill="#000000" transform="matrix(1.00, 0.00, -0.00, -1.00, 296.1, 551.0)">i</text><text xml:space="preserve" font-family="Helvetica" font-size="36.0" fill="#000000" transform="matrix(1.00, 0.00, -0.00, -1.00, 304.1, 551.0)">c</text><text xml:space="preserve" font-family="Helvetica" font-size="36.0" fill="#000000" transform="matrix(1.00, 0.00, -0.00, -1.00, 322.1, 551.0)">t</text><text xml:space="preserve" font-family="Helvetica" font-size="36.0" fill="#000000" transform="matrix(1.00, 0.00, -0.00, -1.00, 332.1, 551.0)">/</text><text xml:space="preserve" font-family="Helvetica" font-size="36.0" fill="#000000" transform="matrix(1.00, 0.00, -0.00, -1.00, 342.1, 551.0)">h</text><text xml:space="preserve" font-family="Helvetica" font-size="36.0" fill="#000000" transform="matrix(1.00, 0.00, -0.00, -1.00, 362.1, 551.0)">a</text><text xml:space="preserve" font-family="Helvetica" font-size="36.0" fill="#000000" transform="matrix(1.00, 0.00, -0.00, -1.00, 382.1, 551.0)">s</text><text xml:space="preserve" font-family="Helvetica" font-size="36.0" fill="#000000" transform="matrix(1.00, 0.00, -0.00, -1.00, 400.1, 551.0)">h</text><text xml:space="preserve" font-family="Helvetica" font-size="36.0" fill="#000000" transform="matrix(1.00, 0.00, -0.00, -1.00, 420.2, 551.0)">/</text><text xml:space="preserve" font-family="Helvetica" font-size="36.0" fill="#000000" transform="matrix(1.00, 0.00, -0.00, -1.00, 430.2, 551.0)">o</text><text xml:space="preserve" font-family="Helvetica" font-size="36.0" fill="#000000" transform="matrix(1.00, 0.00, -0.00, -1.00, 450.2, 551.0)">b</text><text xml:space="preserve" font-family="Helvetica" font-size="36.0" fill="#000000" transform="matrix(1.00, 0.00, -0.00, -1.00, 470.2, 551.0)">j</text><text xml:space="preserve" font-family="Helvetica" font-size="36.0" fill="#000000" transform="matrix(1.00, 0.00, -0.00, -1.00, 478.2, 551.0)">e</text><text xml:space="preserve" font-family="Helvetica" font-size="36.0" fill="#000000" transform="matrix(1.00, 0.00, -0.00, -1.00, 498.3, 551.0)">c</text><text xml:space="preserve" font-family="Helvetica" font-size="36.0" fill="#000000" transform="matrix(1.00, 0.00, -0.00, -1.00, 516.3, 551.0)">t</text><text xml:space="preserve" font-family="Helvetica" font-size="36.0" fill="#000000" transform="matrix(1.00, 0.00, -0.00, -1.00, 526.3, 551.0)">/</text><text xml:space="preserve" font-family="Helvetica" font-size="36.0" fill="#000000" transform="matrix(1.00, 0.00, -0.00, -1.00, 536.3, 551.0)">a</text><text xml:space="preserve" font-family="Helvetica" font-size="36.0" fill="#000000" transform="matrix(1.00, 0.00, -0.00, -1.00, 556.3, 551.0)">s</text><text xml:space="preserve" font-family="Helvetica" font-size="36.0" fill="#000000" transform="matrix(1.00, 0.00, -0.00, -1.00, 574.3, 551.0)">s</text><text xml:space="preserve" font-family="Helvetica" font-size="36.0" fill="#000000" transform="matrix(1.00, 0.00, -0.00, -1.00, 592.3, 551.0)">o</text><text xml:space="preserve" font-family="Helvetica" font-size="36.0" fill="#000000" transform="matrix(1.00, 0.00, -0.00, -1.00, 612.3, 551.0)">c</text><text xml:space="preserve" font-family="Helvetica" font-size="36.0" fill="#000000" transform="matrix(1.00, 0.00, -0.00, -1.00, 630.3, 551.0)">i</text><text xml:space="preserve" font-family="Helvetica" font-size="36.0" fill="#000000" transform="matrix(1.00, 0.00, -0.00, -1.00, 638.3, 551.0)">a</text><text xml:space="preserve" font-family="Helvetica" font-size="36.0" fill="#000000" transform="matrix(1.00, 0.00, -0.00, -1.00, 658.3, 551.0)">t</text><text xml:space="preserve" font-family="Helvetica" font-size="36.0" fill="#000000" transform="matrix(1.00, 0.00, -0.00, -1.00, 668.3, 551.0)">i</text><text xml:space="preserve" font-family="Helvetica" font-size="36.0" fill="#000000" transform="matrix(1.00, 0.00, -0.00, -1.00, 676.3, 551.0)">v</text><text xml:space="preserve" font-family="Helvetica" font-size="36.0" fill="#000000" transform="matrix(1.00, 0.00, -0.00, -1.00, 694.3, 551.0)">e</text><text xml:space="preserve" font-family="Helvetica" font-size="36.0" fill="#000000" transform="matrix(1.00, 0.00, -0.00, -1.00, 714.4, 551.0)"> </text><text xml:space="preserve" font-family="Helvetica" font-size="36.0" fill="#000000" transform="matrix(1.00, 0.00, -0.00, -1.00, 724.4, 551.0)">a</text><text xml:space="preserve" font-family="Helvetica" font-size="36.0" fill="#000000" transform="matrix(1.00, 0.00, -0.00, -1.00, 744.4, 551.0)">r</text><text xml:space="preserve" font-family="Helvetica" font-size="36.0" fill="#000000" transform="matrix(1.00, 0.00, -0.00, -1.00, 756.4, 551.0)">r</text><text xml:space="preserve" font-family="Helvetica" font-size="36.0" fill="#000000" transform="matrix(1.00, 0.00, -0.00, -1.00, 768.4, 551.0)">a</text><text xml:space="preserve" font-family="Helvetica" font-size="36.0" fill="#000000" transform="matrix(1.00, 0.00, -0.00, -1.00, 788.4, 551.0)">y</text><text xml:space="preserve" font-family="Helvetica" font-size="36.0" fill="#000000" transform="matrix(1.00, 0.00, -0.00, -1.00, 806.4, 551.0)">)</text><text xml:space="preserve" font-family="CourierNewPSMT" font-size="36.0" fill="#000000" transform="matrix(1.00, 0.00, -0.00, -1.00, 133.0, 459.0)">t</text><text xml:space="preserve" font-family="CourierNewPSMT" font-size="36.0" fill="#000000" transform="matrix(1.00, 0.00, -0.00, -1.00, 154.6, 459.0)"> </text><text xml:space="preserve" font-family="CourierNewPSMT" font-size="36.0" fill="#000000" transform="matrix(1.00, 0.00, -0.00, -1.00, 176.2, 459.0)">=</text><text xml:space="preserve" font-family="CourierNewPSMT" font-size="36.0" fill="#000000" transform="matrix(1.00, 0.00, -0.00, -1.00, 197.8, 459.0)"> </text><text xml:space="preserve" font-family="CourierNewPSMT" font-size="36.0" fill="#000000" transform="matrix(1.00, 0.00, -0.00, -1.00, 219.4, 459.0)">{</text><text xml:space="preserve" font-family="CourierNewPSMT" font-size="36.0" fill="#000000" transform="matrix(1.00, 0.00, -0.00, -1.00, 241.0, 459.0)"> </text><text xml:space="preserve" font-family="CourierNewPSMT" font-size="36.0" fill="#000000" transform="matrix(1.00, 0.00, -0.00, -1.00, 133.0, 418.0)"> </text><text xml:space="preserve" font-family="CourierNewPSMT" font-size="36.0" fill="#000000" transform="matrix(1.00, 0.00, -0.00, -1.00, 154.6, 418.0)"> </text><text xml:space="preserve" font-family="CourierNewPSMT" font-size="36.0" fill="#000000" transform="matrix(1.00, 0.00, -0.00, -1.00, 176.2, 418.0)">"</text><text xml:space="preserve" font-family="CourierNewPSMT" font-size="36.0" fill="#000000" transform="matrix(1.00, 0.00, -0.00, -1.00, 197.8, 418.0)">h</text><text xml:space="preserve" font-family="CourierNewPSMT" font-size="36.0" fill="#000000" transform="matrix(1.00, 0.00, -0.00, -1.00, 219.4, 418.0)">o</text><text xml:space="preserve" font-family="CourierNewPSMT" font-size="36.0" fill="#000000" transform="matrix(1.00, 0.00, -0.00, -1.00, 241.0, 418.0)">w</text><text xml:space="preserve" font-family="CourierNewPSMT" font-size="36.0" fill="#000000" transform="matrix(1.00, 0.00, -0.00, -1.00, 262.6, 418.0)">"</text><text xml:space="preserve" font-family="CourierNewPSMT" font-size="36.0" fill="#000000" transform="matrix(1.00, 0.00, -0.00, -1.00, 284.2, 418.0)"> </text><text xml:space="preserve" font-family="CourierNewPSMT" font-size="36.0" fill="#000000" transform="matrix(1.00, 0.00, -0.00, -1.00, 305.9, 418.0)">=</text><text xml:space="preserve" font-family="CourierNewPSMT" font-size="36.0" fill="#000000" transform="matrix(1.00, 0.00, -0.00, -1.00, 327.5, 418.0)"> </text><text xml:space="preserve" font-family="CourierNewPSMT" font-size="36.0" fill="#000000" transform="matrix(1.00, 0.00, -0.00, -1.00, 349.1, 418.0)">"</text><text xml:space="preserve" font-family="CourierNewPSMT" font-size="36.0" fill="#000000" transform="matrix(1.00, 0.00, -0.00, -1.00, 370.7, 418.0)">b</text><text xml:space="preserve" font-family="CourierNewPSMT" font-size="36.0" fill="#000000" transform="matrix(1.00, 0.00, -0.00, -1.00, 392.3, 418.0)">r</text><text xml:space="preserve" font-family="CourierNewPSMT" font-size="36.0" fill="#000000" transform="matrix(1.00, 0.00, -0.00, -1.00, 413.9, 418.0)">o</text><text xml:space="preserve" font-family="CourierNewPSMT" font-size="36.0" fill="#000000" transform="matrix(1.00, 0.00, -0.00, -1.00, 435.5, 418.0)">w</text><text xml:space="preserve" font-family="CourierNewPSMT" font-size="36.0" fill="#000000" transform="matrix(1.00, 0.00, -0.00, -1.00, 457.1, 418.0)">n</text><text xml:space="preserve" font-family="CourierNewPSMT" font-size="36.0" fill="#000000" transform="matrix(1.00, 0.00, -0.00, -1.00, 478.7, 418.0)">"</text><text xml:space="preserve" font-family="CourierNewPSMT" font-size="36.0" fill="#000000" transform="matrix(1.00, 0.00, -0.00, -1.00, 500.3, 418.0)">,</text><text xml:space="preserve" font-family="CourierNewPSMT" font-size="36.0" fill="#000000" transform="matrix(1.00, 0.00, -0.00, -1.00, 521.9, 418.0)"> </text><text xml:space="preserve" font-family="CourierNewPSMT" font-size="36.0" fill="#000000" transform="matrix(1.00, 0.00, -0.00, -1.00, 133.0, 377.0)"> </text><text xml:space="preserve" font-family="CourierNewPSMT" font-size="36.0" fill="#000000" transform="matrix(1.00, 0.00, -0.00, -1.00, 154.6, 377.0)"> </text><text xml:space="preserve" font-family="CourierNewPSMT" font-size="36.0" fill="#000000" transform="matrix(1.00, 0.00, -0.00, -1.00, 176.2, 377.0)">"</text><text xml:space="preserve" font-family="CourierNewPSMT" font-size="36.0" fill="#000000" transform="matrix(1.00, 0.00, -0.00, -1.00, 197.8, 377.0)">n</text><text xml:space="preserve" font-family="CourierNewPSMT" font-size="36.0" fill="#000000" transform="matrix(1.00, 0.00, -0.00, -1.00, 219.4, 377.0)">o</text><text xml:space="preserve" font-family="CourierNewPSMT" font-size="36.0" fill="#000000" transform="matrix(1.00, 0.00, -0.00, -1.00, 241.0, 377.0)">w</text><text xml:space="preserve" font-family="CourierNewPSMT" font-size="36.0" fill="#000000" transform="matrix(1.00, 0.00, -0.00, -1.00, 262.6, 377.0)">"</text><text xml:space="preserve" font-family="CourierNewPSMT" font-size="36.0" fill="#000000" transform="matrix(1.00, 0.00, -0.00, -1.00, 284.2, 377.0)"> </text><text xml:space="preserve" font-family="CourierNewPSMT" font-size="36.0" fill="#000000" transform="matrix(1.00, 0.00, -0.00, -1.00, 305.9, 377.0)">=</text><text xml:space="preserve" font-family="CourierNewPSMT" font-size="36.0" fill="#000000" transform="matrix(1.00, 0.00, -0.00, -1.00, 327.5, 377.0)"> </text><text xml:space="preserve" font-family="CourierNewPSMT" font-size="36.0" fill="#000000" transform="matrix(1.00, 0.00, -0.00, -1.00, 349.1, 377.0)">"</text><text xml:space="preserve" font-family="CourierNewPSMT" font-size="36.0" fill="#000000" transform="matrix(1.00, 0.00, -0.00, -1.00, 370.7, 377.0)">c</text><text xml:space="preserve" font-family="CourierNewPSMT" font-size="36.0" fill="#000000" transform="matrix(1.00, 0.00, -0.00, -1.00, 392.3, 377.0)">o</text><text xml:space="preserve" font-family="CourierNewPSMT" font-size="36.0" fill="#000000" transform="matrix(1.00, 0.00, -0.00, -1.00, 413.9, 377.0)">w</text><text xml:space="preserve" font-family="CourierNewPSMT" font-size="36.0" fill="#000000" transform="matrix(1.00, 0.00, -0.00, -1.00, 435.5, 377.0)">"</text><text xml:space="preserve" font-family="CourierNewPSMT" font-size="36.0" fill="#000000" transform="matrix(1.00, 0.00, -0.00, -1.00, 457.1, 377.0)"> </text><text xml:space="preserve" font-family="CourierNewPSMT" font-size="36.0" fill="#000000" transform="matrix(1.00, 0.00, -0.00, -1.00, 133.0, 336.0)">}</text><text xml:space="preserve" font-family="CourierNewPSMT" font-size="36.0" fill="#000000" transform="matrix(1.00, 0.00, -0.00, -1.00, 154.6, 336.0)"> </text><text xml:space="preserve" font-family="CourierNewPSMT" font-size="36.0" fill="#000000" transform="matrix(1.00, 0.00, -0.00, -1.00, 133.0, 295.0)">p</text><text xml:space="preserve" font-family="CourierNewPSMT" font-size="36.0" fill="#000000" transform="matrix(1.00, 0.00, -0.00, -1.00, 154.6, 295.0)">r</text><text xml:space="preserve" font-family="CourierNewPSMT" font-size="36.0" fill="#000000" transform="matrix(1.00, 0.00, -0.00, -1.00, 176.2, 295.0)">i</text><text xml:space="preserve" font-family="CourierNewPSMT" font-size="36.0" fill="#000000" transform="matrix(1.00, 0.00, -0.00, -1.00, 197.8, 295.0)">n</text><text xml:space="preserve" font-family="CourierNewPSMT" font-size="36.0" fill="#000000" transform="matrix(1.00, 0.00, -0.00, -1.00, 219.4, 295.0)">t</text><text xml:space="preserve" font-family="CourierNewPSMT" font-size="36.0" fill="#000000" transform="matrix(1.00, 0.00, -0.00, -1.00, 241.0, 295.0)">(</text><text xml:space="preserve" font-family="CourierNewPSMT" font-size="36.0" fill="#000000" transform="matrix(1.00, 0.00, -0.00, -1.00, 262.6, 295.0)">t</text><text xml:space="preserve" font-family="CourierNewPSMT" font-size="36.0" fill="#000000" transform="matrix(1.00, 0.00, -0.00, -1.00, 284.2, 295.0)">[</text><text xml:space="preserve" font-family="CourierNewPSMT" font-size="36.0" fill="#000000" transform="matrix(1.00, 0.00, -0.00, -1.00, 305.9, 295.0)">"</text><text xml:space="preserve" font-family="CourierNewPSMT" font-size="36.0" fill="#000000" transform="matrix(1.00, 0.00, -0.00, -1.00, 327.5, 295.0)">h</text><text xml:space="preserve" font-family="CourierNewPSMT" font-size="36.0" fill="#000000" transform="matrix(1.00, 0.00, -0.00, -1.00, 349.1, 295.0)">o</text><text xml:space="preserve" font-family="CourierNewPSMT" font-size="36.0" fill="#000000" transform="matrix(1.00, 0.00, -0.00, -1.00, 370.7, 295.0)">w</text><text xml:space="preserve" font-family="CourierNewPSMT" font-size="36.0" fill="#000000" transform="matrix(1.00, 0.00, -0.00, -1.00, 392.3, 295.0)">"</text><text xml:space="preserve" font-family="CourierNewPSMT" font-size="36.0" fill="#000000" transform="matrix(1.00, 0.00, -0.00, -1.00, 413.9, 295.0)">]</text><text xml:space="preserve" font-family="CourierNewPSMT" font-size="36.0" fill="#000000" transform="matrix(1.00, 0.00, -0.00, -1.00, 435.5, 295.0)">)</text><text xml:space="preserve" font-family="CourierNewPSMT" font-size="36.0" fill="#000000" transform="matrix(1.00, 0.00, -0.00, -1.00, 457.1, 295.0)"> </text><text xml:space="preserve" font-family="CourierNewPSMT" font-size="36.0" fill="#000000" transform="matrix(1.00, 0.00, -0.00, -1.00, 133.0, 254.0)">p</text><text xml:space="preserve" font-family="CourierNewPSMT" font-size="36.0" fill="#000000" transform="matrix(1.00, 0.00, -0.00, -1.00, 154.6, 254.0)">r</text><text xml:space="preserve" font-family="CourierNewPSMT" font-size="36.0" fill="#000000" transform="matrix(1.00, 0.00, -0.00, -1.00, 176.2, 254.0)">i</text><text xml:space="preserve" font-family="CourierNewPSMT" font-size="36.0" fill="#000000" transform="matrix(1.00, 0.00, -0.00, -1.00, 197.8, 254.0)">n</text><text xml:space="preserve" font-family="CourierNewPSMT" font-size="36.0" fill="#000000" transform="matrix(1.00, 0.00, -0.00, -1.00, 219.4, 254.0)">t</text><text xml:space="preserve" font-family="CourierNewPSMT" font-size="36.0" fill="#000000" transform="matrix(1.00, 0.00, -0.00, -1.00, 241.0, 254.0)">(</text><text xml:space="preserve" font-family="CourierNewPSMT" font-size="36.0" fill="#000000" transform="matrix(1.00, 0.00, -0.00, -1.00, 262.6, 254.0)">t</text><text xml:space="preserve" font-family="CourierNewPSMT" font-size="36.0" fill="#000000" transform="matrix(1.00, 0.00, -0.00, -1.00, 284.2, 254.0)">.</text><text xml:space="preserve" font-family="CourierNewPSMT" font-size="36.0" fill="#000000" transform="matrix(1.00, 0.00, -0.00, -1.00, 305.9, 254.0)">n</text><text xml:space="preserve" font-family="CourierNewPSMT" font-size="36.0" fill="#000000" transform="matrix(1.00, 0.00, -0.00, -1.00, 327.5, 254.0)">o</text><text xml:space="preserve" font-family="CourierNewPSMT" font-size="36.0" fill="#000000" transform="matrix(1.00, 0.00, -0.00, -1.00, 349.1, 254.0)">w</text><text xml:space="preserve" font-family="CourierNewPSMT" font-size="36.0" fill="#000000" transform="matrix(1.00, 0.00, -0.00, -1.00, 370.7, 254.0)">)</text><text xml:space="preserve" font-family="CourierNewPSMT" font-size="36.0" fill="#000000" transform="matrix(1.00, 0.00, -0.00, -1.00, 392.3, 254.0)"> </text><text xml:space="preserve" font-family="CourierNewPSMT" font-size="36.0" fill="#AA7941" transform="matrix(1.00, 0.00, -0.00, -1.00, 133.0, 213.0)">b</text><text xml:space="preserve" font-family="CourierNewPSMT" font-size="36.0" fill="#AA7941" transform="matrix(1.00, 0.00, -0.00, -1.00, 154.6, 213.0)">r</text><text xml:space="preserve" font-family="CourierNewPSMT" font-size="36.0" fill="#AA7941" transform="matrix(1.00, 0.00, -0.00, -1.00, 176.2, 213.0)">o</text><text xml:space="preserve" font-family="CourierNewPSMT" font-size="36.0" fill="#AA7941" transform="matrix(1.00, 0.00, -0.00, -1.00, 197.8, 213.0)">w</text><text xml:space="preserve" font-family="CourierNewPSMT" font-size="36.0" fill="#AA7941" transform="matrix(1.00, 0.00, -0.00, -1.00, 219.4, 213.0)">n</text><text xml:space="preserve" font-family="CourierNewPSMT" font-size="36.0" fill="#AA7941" transform="matrix(1.00, 0.00, -0.00, -1.00, 241.0, 213.0)"> </text><text xml:space="preserve" font-family="CourierNewPSMT" font-size="36.0" fill="#AA7941" transform="matrix(1.00, 0.00, -0.00, -1.00, 133.0, 172.0)">c</text><text xml:space="preserve" font-family="CourierNewPSMT" font-size="36.0" fill="#AA7941" transform="matrix(1.00, 0.00, -0.00, -1.00, 154.6, 172.0)">o</text><text xml:space="preserve" font-family="CourierNewPSMT" font-size="36.0" fill="#AA7941" transform="matrix(1.00, 0.00, -0.00, -1.00, 176.2, 172.0)">w</text></g></svg>