<?xml version="1.0" encoding="UTF-8" standalone="no"?><svg xmlns="http://www.w3.org/2000/svg" xmlns:xlink="http://www.w3.org/1999/xlink" clip-rule="evenodd" stroke-miterlimit="4.00" viewBox="0 0 1024 768"><desc>SVG generated by Keynote</desc><defs></defs><g transform="matrix(1.00, 0.00, -0.00, -1.00, 0.0, 768.0)"><path d="M 0.0 768.0 L 1024.0 768.0 L 1024.0 0.0 L 0.0 0.0 Z M 0.0 768.0 " fill="#FEFFFF"></path><text xml:space="preserve" font-family="Helvetica-Light" font-size="80.0" fill="#000000" transform="matrix(1.00, 0.00, -0.00, -1.00, 401.0, 618.0)">B</text><text xml:space="preserve" font-family="Helvetica-Light" font-size="80.0" fill="#000000" transform="matrix(1.00, 0.00, -0.00, -1.00, 454.4, 618.0)">a</text><text xml:space="preserve" font-family="Helvetica-Light" font-size="80.0" fill="#000000" transform="matrix(1.00, 0.00, -0.00, -1.00, 498.8, 618.0)">s</text><text xml:space="preserve" font-family="Helvetica-Light" font-size="80.0" fill="#000000" transform="matrix(1.00, 0.00, -0.00, -1.00, 538.8, 618.0)">i</text><text xml:space="preserve" font-family="Helvetica-Light" font-size="80.0" fill="#000000" transform="matrix(1.00, 0.00, -0.00, -1.00, 556.6, 618.0)">c</text><text xml:space="preserve" font-family="Helvetica-Light" font-size="80.0" fill="#000000" transform="matrix(1.00, 0.00, -0.00, -1.00, 601.1, 618.0)">s</text><text xml:space="preserve" font-family="CourierNewPSMT" font-size="36.0" fill="#000000" transform="matrix(1.00, 0.00, -0.00, -1.00, 142.0, 443.0)">a</text><text xml:space="preserve" font-family="CourierNewPSMT" font-size="36.0" fill="#000000" transform="matrix(1.00, 0.00, -0.00, -1.00, 163.6, 443.0)">=</text><text xml:space="preserve" font-family="CourierNewPSMT" font-size="36.0" fill="#000000" transform="matrix(1.00, 0.00, -0.00, -1.00, 185.2, 443.0)">2</text><text xml:space="preserve" font-family="CourierNewPSMT" font-size="36.0" fill="#000000" transform="matrix(1.00, 0.00, -0.00, -1.00, 206.8, 443.0)"> </text><text xml:space="preserve" font-family="CourierNewPSMT" font-size="36.0" fill="#000000" transform="matrix(1.00, 0.00, -0.00, -1.00, 228.4, 443.0)">b</text><text xml:space="preserve" font-family="CourierNewPSMT" font-size="36.0" fill="#000000" transform="matrix(1.00, 0.00, -0.00, -1.00, 250.0, 443.0)">=</text><text xml:space="preserve" font-family="CourierNewPSMT" font-size="36.0" fill="#000000" transform="matrix(1.00, 0.00, -0.00, -1.00, 271.6, 443.0)">3</text><text xml:space="preserve" font-family="CourierNewPSMT" font-size="36.0" fill="#000000" transform="matrix(1.00, 0.00, -0.00, -1.00, 293.2, 443.0)"> </text><text xml:space="preserve" font-family="CourierNewPSMT" font-size="36.0" fill="#000000" transform="matrix(1.00, 0.00, -0.00, -1.00, 314.9, 443.0)">c</text><text xml:space="preserve" font-family="CourierNewPSMT" font-size="36.0" fill="#000000" transform="matrix(1.00, 0.00, -0.00, -1.00, 336.5, 443.0)">=</text><text xml:space="preserve" font-family="CourierNewPSMT" font-size="36.0" fill="#000000" transform="matrix(1.00, 0.00, -0.00, -1.00, 358.1, 443.0)">4</text><text xml:space="preserve" font-family="CourierNewPSMT" font-size="36.0" fill="#000000" transform="matrix(1.00, 0.00, -0.00, -1.00, 379.7, 443.0)"> </text><text xml:space="preserve" font-family="CourierNewPSMT" font-size="36.0" fill="#000000" transform="matrix(1.00, 0.00, -0.00, -1.00, 142.0, 402.0)">p</text><text xml:space="preserve" font-family="CourierNewPSMT" font-size="36.0" fill="#000000" transform="matrix(1.00, 0.00, -0.00, -1.00, 163.6, 402.0)">r</text><text xml:space="preserve" font-family="CourierNewPSMT" font-size="36.0" fill="#000000" transform="matrix(1.00, 0.00, -0.00, -1.00, 185.2, 402.0)">i</text><text xml:space="preserve" font-family="CourierNewPSMT" font-size="36.0" fill="#000000" transform="matrix(1.00, 0.00, -0.00, -1.00, 206.8, 402.0)">n</text><text xml:space="preserve" font-family="CourierNewPSMT" font-size="36.0" fill="#000000" transform="matrix(1.00, 0.00, -0.00, -1.00, 228.4, 402.0)">t</text><text xml:space="preserve" font-family="CourierNewPSMT" font-size="36.0" fill="#000000" transform="matrix(1.00, 0.00, -0.00, -1.00, 250.0, 402.0)">(</text><text xml:space="preserve" font-family="CourierNewPSMT" font-size="36.0" fill="#000000" transform="matrix(1.00, 0.00, -0.00, -1.00, 271.6, 402.0)">a</text><text xml:space="preserve" font-family="CourierNewPSMT" font-size="36.0" fill="#000000" transform="matrix(1.00, 0.00, -0.00, -1.00, 293.2, 402.0)"> </text><text xml:space="preserve" font-family="CourierNewPSMT" font-size="36.0" fill="#000000" transform="matrix(1.00, 0.00, -0.00, -1.00, 314.9, 402.0)">+</text><text xml:space="preserve" font-family="CourierNewPSMT" font-size="36.0" fill="#000000" transform="matrix(1.00, 0.00, -0.00, -1.00, 336.5, 402.0)"> </text><text xml:space="preserve" font-family="CourierNewPSMT" font-size="36.0" fill="#000000" transform="matrix(1.00, 0.00, -0.00, -1.00, 358.1, 402.0)">b</text><text xml:space="preserve" font-family="CourierNewPSMT" font-size="36.0" fill="#000000" transform="matrix(1.00, 0.00, -0.00, -1.00, 379.7, 402.0)"> </text><text xml:space="preserve" font-family="CourierNewPSMT" font-size="36.0" fill="#000000" transform="matrix(1.00, 0.00, -0.00, -1.00, 401.3, 402.0)">+</text><text xml:space="preserve" font-family="CourierNewPSMT" font-size="36.0" fill="#000000" transform="matrix(1.00, 0.00, -0.00, -1.00, 422.9, 402.0)"> </text><text xml:space="preserve" font-family="CourierNewPSMT" font-size="36.0" fill="#000000" transform="matrix(1.00, 0.00, -0.00, -1.00, 444.5, 402.0)">c</text><text xml:space="preserve" font-family="CourierNewPSMT" font-size="36.0" fill="#000000" transform="matrix(1.00, 0.00, -0.00, -1.00, 466.1, 402.0)">)</text><text xml:space="preserve" font-family="CourierNewPSMT" font-size="36.0" fill="#000000" transform="matrix(1.00, 0.00, -0.00, -1.00, 487.7, 402.0)"> </text></g></svg>